{"title":"Funny Pics Compilation Part 1","uid":15947530,"size":94180234,"categoryP":"video","categoryS":"other","magnet":"?xt=urn:btih:ca44ea66586fe5fb7ec55598b44ce23bd75c7cd4&amp;dn=Funny+Pics+Compilation+Part+1&amp;tr=udp%3A%2F%2Ftracker.leechers-paradise.org%3A6969&amp;tr=udp%3A%2F%2Fzer0day.ch%3A1337&amp;tr=udp%3A%2F%2Fopen.demonii.com%3A1337&amp;tr=udp%3A%2F%2Ftracker.coppersurfer.tk%3A6969&amp;tr=udp%3A%2F%2Fexodus.desync.com%3A6969","seeders":1,"leechers":3,"uploader":"nico1899","files":1,"time":1475529282,"description":"Subscribe to our Channel:\r\n\r\n\r\nScreenshots\r\n \nhttp://picrelated.com/image/95uFW \nhttp://picrelated.com/image/956wo \nhttp://picrelated.com/image/950BN \nhttp://picrelated.com/image/95cSF \nhttp://picrelated.com/image/95EcV\r\n\r\nFormat                                   : MPEG-4\r\nFormat profile                           : Base Media / Version 2\r\nCodec ID                                 : mp42 (mp41/isom)\r\nFile size                                : 89.8 MiB\r\nDuration                                 : 3 min 55 s\r\nOverall bit rate                         : 3 198 kb/s\r\nEncoded date                             : UTC 2016-10-03 17:52:49\r\nTagged date                              : UTC 2016-10-03 17:52:49\r\n\r\nVideo\r\nID                                       : 1\r\nFormat                                   : AVC\r\nFormat/Info                              : Advanced Video Codec\r\nFormat profile                           :   \r\nFormat settings, CABAC                   : No\r\nFormat settings, ReFrames                : 2 frames\r\nFormat settings, GOP                     : M=1, N=30\r\nCodec ID                                 : avc1\r\nCodec ID/Info                            : Advanced Video Coding\r\nDuration                                 : 3 min 55 s\r\nSource duration                          : 3 min 55 s\r\nBit rate                                 : 3 005 kb/s\r\nWidth                                    : 1 920 pixels\r\nHeight                                   : 1 080 pixels\r\nDisplay aspect ratio                     : 16:9\r\nFrame rate mode                          : Constant\r\nFrame rate                               : 29.970 (29970/1000) FPS\r\nColor space                              : YUV\r\nChroma subsampling                       : 4:2:0\r\nBit depth                                : 8 bits\r\nScan type                                : Progressive\r\nBits/(Pixel*Frame)                       : 0.048\r\nStream size                              : 84.4 MiB (94%)\r\nSource stream size                       : 84.4 MiB (94%)\r\nEncoded date                             : UTC 2016-10-03 17:52:49\r\nTagged date                              : UTC 2016-10-03 17:52:49\r\nmdhd_Duration                            : 235602\r\n\r\nAudio\r\nID                                       : 2\r\nFormat                                   : AAC\r\nFormat/Info                              : Advanced Audio Codec\r\nFormat profile                           : LC\r\nCodec ID                                 : 40\r\nDuration                                 : 3 min 55 s\r\nBit rate mode                            : Constant\r\nBit rate                                 : 192 kb/s\r\nChannel(s)                               : 2 channels\r\nChannel positions                        : Front: L R\r\nSampling rate                            : 48.0 kHz\r\nFrame rate                               : 46.875 FPS (1024 spf)\r\nCompression mode                         : Lossy\r\nStream size                              : 5.34 MiB (6%)\r\nEncoded date                             : UTC 2016-10-03 17:52:49\r\nTagged date                              : UTC 2016-10-03 17:52:49\r\nmdhd_Duration                            : 235605","torrent":{"xt":"urn:btih:ca44ea66586fe5fb7ec55598b44ce23bd75c7cd4","amp;dn":"Funny+Pics+Compilation+Part+1","amp;tr":["udp%3A%2F%2Ftracker.leechers-paradise.org%3A6969","udp%3A%2F%2Fzer0day.ch%3A1337","udp%3A%2F%2Fopen.demonii.com%3A1337","udp%3A%2F%2Ftracker.coppersurfer.tk%3A6969","udp%3A%2F%2Fexodus.desync.com%3A6969"],"infoHash":"ca44ea66586fe5fb7ec55598b44ce23bd75c7cd4","infoHashBuffer":{"type":"Buffer","data":[202,68,234,102,88,111,229,251,126,197,85,152,180,76,226,59,215,92,124,212]},"announce":[],"urlList":[]}}